<svg width="20" height="20" viewBox="0 0 20 20" fill="none" xmlns="http://www.w3.org/2000/svg">
<path d="M13.3337 1.66663H6.667C6.00396 1.66663 5.36807 1.93002 4.89923 2.39886C4.43039 2.8677 4.167 3.50358 4.167 4.16663V17.5C4.16642 17.6468 4.20464 17.7912 4.27781 17.9185C4.35098 18.0458 4.4565 18.1515 4.58367 18.225C4.71035 18.2981 4.85405 18.3366 5.00033 18.3366C5.14661 18.3366 5.29032 18.2981 5.417 18.225L10.0003 15.575L14.5837 18.225C14.7107 18.2969 14.8544 18.3343 15.0003 18.3333C15.1463 18.3343 15.29 18.2969 15.417 18.225C15.5442 18.1515 15.6497 18.0458 15.7228 17.9185C15.796 17.7912 15.8342 17.6468 15.8337 17.5V4.16663C15.8337 3.50358 15.5703 2.8677 15.1014 2.39886C14.6326 1.93002 13.9967 1.66663 13.3337 1.66663ZM14.167 16.0583L10.417 13.8916C10.2903 13.8185 10.1466 13.78 10.0003 13.78C9.85405 13.78 9.71035 13.8185 9.58366 13.8916L5.83367 16.0583V4.16663C5.83367 3.94561 5.92146 3.73365 6.07774 3.57737C6.23402 3.42109 6.44598 3.33329 6.667 3.33329H13.3337C13.5547 3.33329 13.7666 3.42109 13.9229 3.57737C14.0792 3.73365 14.167 3.94561 14.167 4.16663V16.0583Z" fill="#4F4F4F"/>
</svg>
