<svg width="13" height="13" viewBox="0 0 13 13" fill="none" xmlns="http://www.w3.org/2000/svg">
<path d="M2.35905 6.31775C2.26119 6.31775 2.16553 6.34677 2.08416 6.40114C2.00279 6.45551 1.93937 6.53278 1.90192 6.62319C1.86447 6.7136 1.85467 6.81309 1.87377 6.90907C1.89286 7.00505 1.93998 7.09321 2.00918 7.16241C2.07838 7.23161 2.16654 7.27873 2.26252 7.29783C2.3585 7.31692 2.45799 7.30712 2.5484 7.26967C2.63881 7.23222 2.71609 7.1688 2.77045 7.08743C2.82482 7.00606 2.85384 6.9104 2.85384 6.81254C2.85384 6.68131 2.80171 6.55546 2.70892 6.46267C2.61613 6.36988 2.49028 6.31775 2.35905 6.31775ZM3.314 9.61306C3.24451 9.68214 3.19709 9.7703 3.17776 9.86636C3.15843 9.96242 3.16805 10.0621 3.20542 10.1526C3.24278 10.2432 3.3062 10.3207 3.38763 10.3752C3.46906 10.4297 3.56484 10.4588 3.66283 10.4588C3.76081 10.4588 3.85659 10.4297 3.93802 10.3752C4.01945 10.3207 4.08287 10.2432 4.12023 10.1526C4.1576 10.0621 4.16722 9.96242 4.14789 9.86636C4.12856 9.7703 4.08115 9.68214 4.01165 9.61306C3.91895 9.52091 3.79354 9.46918 3.66283 9.46918C3.53211 9.46918 3.4067 9.52091 3.314 9.61306ZM4.01165 4.01202C4.08115 3.94294 4.12856 3.85478 4.14789 3.75872C4.16722 3.66266 4.1576 3.56302 4.12023 3.47244C4.08287 3.38186 4.01945 3.30441 3.93802 3.24991C3.85659 3.19541 3.76081 3.16632 3.66283 3.16632C3.56484 3.16632 3.46906 3.19541 3.38763 3.24991C3.3062 3.30441 3.24278 3.38186 3.20542 3.47244C3.16805 3.56302 3.15843 3.66266 3.17776 3.75872C3.19709 3.85478 3.24451 3.94294 3.314 4.01202C3.4067 4.10418 3.53211 4.1559 3.66283 4.1559C3.79354 4.1559 3.91895 4.10418 4.01165 4.01202ZM6.81217 2.85421C6.91003 2.85421 7.0057 2.82519 7.08707 2.77082C7.16843 2.71645 7.23185 2.63918 7.2693 2.54876C7.30675 2.45835 7.31655 2.35887 7.29746 2.26289C7.27837 2.16691 7.23124 2.07874 7.16204 2.00955C7.09285 1.94035 7.00468 1.89322 6.9087 1.87413C6.81272 1.85504 6.71324 1.86484 6.62283 1.90229C6.53241 1.93974 6.45514 2.00316 6.40077 2.08452C6.3464 2.16589 6.31738 2.26156 6.31738 2.35942C6.31738 2.49064 6.36951 2.6165 6.4623 2.70929C6.5551 2.80208 6.68095 2.85421 6.81217 2.85421ZM9.61269 9.61306C9.5432 9.68214 9.49579 9.7703 9.47646 9.86636C9.45712 9.96242 9.46675 10.0621 9.50411 10.1526C9.54148 10.2432 9.60489 10.3207 9.68633 10.3752C9.76776 10.4297 9.86354 10.4588 9.96152 10.4588C10.0595 10.4588 10.1553 10.4297 10.2367 10.3752C10.3182 10.3207 10.3816 10.2432 10.4189 10.1526C10.4563 10.0621 10.4659 9.96242 10.4466 9.86636C10.4273 9.7703 10.3798 9.68214 10.3104 9.61306C10.2176 9.52091 10.0922 9.46918 9.96152 9.46918C9.83081 9.46918 9.7054 9.52091 9.61269 9.61306ZM11.2653 6.31775C11.1674 6.31775 11.0718 6.34677 10.9904 6.40114C10.909 6.45551 10.8456 6.53278 10.8082 6.62319C10.7707 6.7136 10.7609 6.81309 10.78 6.90907C10.7991 7.00505 10.8462 7.09321 10.9154 7.16241C10.9846 7.23161 11.0728 7.27873 11.1688 7.29783C11.2647 7.31692 11.3642 7.30712 11.4546 7.26967C11.5451 7.23222 11.6223 7.1688 11.6767 7.08743C11.7311 7.00606 11.7601 6.9104 11.7601 6.81254C11.7601 6.68131 11.708 6.55546 11.6152 6.46267C11.5224 6.36988 11.3965 6.31775 11.2653 6.31775ZM9.61269 3.31436C9.5432 3.38344 9.49579 3.4716 9.47646 3.56766C9.45712 3.66372 9.46675 3.76336 9.50411 3.85394C9.54148 3.94452 9.60489 4.02197 9.68633 4.07647C9.76776 4.13097 9.86354 4.16007 9.96152 4.16007C10.0595 4.16007 10.1553 4.13097 10.2367 4.07647C10.3182 4.02197 10.3816 3.94452 10.4189 3.85394C10.4563 3.76336 10.4659 3.66372 10.4466 3.56766C10.4273 3.4716 10.3798 3.38344 10.3104 3.31436C10.2176 3.22221 10.0922 3.17048 9.96152 3.17048C9.83081 3.17048 9.7054 3.22221 9.61269 3.31436ZM6.81217 10.7709C6.71431 10.7709 6.61865 10.7999 6.53728 10.8543C6.45591 10.9086 6.3925 10.9859 6.35505 11.0763C6.3176 11.1667 6.3078 11.2662 6.32689 11.3622C6.34598 11.4582 6.39311 11.5463 6.4623 11.6155C6.5315 11.6847 6.61967 11.7319 6.71565 11.7509C6.81163 11.77 6.91111 11.7602 7.00152 11.7228C7.09193 11.6853 7.16921 11.6219 7.22358 11.5406C7.27795 11.4592 7.30697 11.3635 7.30697 11.2657C7.30697 11.1344 7.25484 11.0086 7.16204 10.9158C7.06925 10.823 6.9434 10.7709 6.81217 10.7709ZM6.81217 3.84379C6.22501 3.84379 5.65103 4.0179 5.16282 4.34412C4.67462 4.67033 4.2941 5.13398 4.06941 5.67645C3.84471 6.21892 3.78592 6.81583 3.90047 7.39172C4.01502 7.9676 4.29776 8.49658 4.71295 8.91176C5.12814 9.32695 5.65712 9.6097 6.233 9.72425C6.80888 9.8388 7.4058 9.78001 7.94827 9.55531C8.49073 9.33061 8.95439 8.9501 9.2806 8.46189C9.60681 7.97368 9.78092 7.3997 9.78092 6.81254C9.78092 6.02518 9.46815 5.27007 8.9114 4.71332C8.35465 4.15657 7.59954 3.84379 6.81217 3.84379ZM6.81217 8.79171C6.42073 8.79171 6.03808 8.67563 5.71261 8.45816C5.38714 8.24068 5.13346 7.93158 4.98366 7.56994C4.83386 7.20829 4.79467 6.81035 4.87104 6.42642C4.9474 6.0425 5.1359 5.68985 5.41269 5.41306C5.68948 5.13627 6.04214 4.94777 6.42606 4.8714C6.80998 4.79504 7.20792 4.83423 7.56957 4.98403C7.93121 5.13383 8.24032 5.3875 8.45779 5.71298C8.67526 6.03845 8.79134 6.4211 8.79134 6.81254C8.79134 7.33745 8.58282 7.84086 8.21166 8.21202C7.84049 8.58319 7.33708 8.79171 6.81217 8.79171Z" fill="#FF8266"/>
</svg>
