<svg width="23" height="30" viewBox="0 0 23 30" fill="none" xmlns="http://www.w3.org/2000/svg">
<ellipse cx="11.583" cy="17.7504" rx="11.25" ry="11.368" fill="#FF8266"/>
<rect x="6.54004" y="0.894531" width="10.0862" height="3.91999" rx="1.95999" fill="#FF8266"/>
<path fill-rule="evenodd" clip-rule="evenodd" d="M15.85 16.1825L15.8499 16.2133V22.4388C15.85 22.444 15.85 22.4492 15.85 22.4543C15.85 23.1038 15.329 23.6303 14.6862 23.6303C14.1756 23.6303 13.7417 23.298 13.585 22.8356C13.5162 22.6327 13.3487 22.4544 13.1345 22.4544C12.9202 22.4544 12.7528 22.6327 12.684 22.8356C12.5272 23.298 12.0934 23.6303 11.5827 23.6303C11.072 23.6303 10.6382 23.298 10.4815 22.8356C10.4127 22.6327 10.2452 22.4544 10.031 22.4544C9.8167 22.4544 9.64927 22.6327 9.58048 22.8356C9.42374 23.298 8.98989 23.6303 8.47922 23.6303C7.83651 23.6303 7.31548 23.1039 7.31543 22.4544V22.4543V16.1825C7.31543 16.1825 7.31545 16.1824 7.31548 16.1824C7.31551 16.1824 7.31554 16.1824 7.31554 16.1824C7.31558 13.801 9.22607 11.8705 11.5828 11.8705C13.9395 11.8705 15.85 13.801 15.85 16.1825Z" fill="white"/>
</svg>
