<svg width="20" height="20" viewBox="0 0 20 20" fill="none" xmlns="http://www.w3.org/2000/svg">
<path d="M16.2541 10.5225C16.1272 10.378 16.0572 10.1923 16.0572 10C16.0572 9.80772 16.1272 9.62199 16.2541 9.47752L17.2675 8.33752C17.3791 8.21296 17.4485 8.05624 17.4655 7.88984C17.4826 7.72343 17.4465 7.5559 17.3625 7.41127L15.7791 4.6721C15.6959 4.52764 15.5692 4.41313 15.4171 4.3449C15.265 4.27666 15.0953 4.25819 14.932 4.2921L13.4437 4.59294C13.2543 4.63207 13.0572 4.60053 12.8895 4.50427C12.7217 4.40801 12.595 4.25369 12.5333 4.07044L12.0504 2.62169C11.9973 2.46444 11.8961 2.32787 11.7611 2.23127C11.6262 2.13467 11.4643 2.08292 11.2983 2.08335H8.13163C7.95899 2.07434 7.78815 2.12209 7.6452 2.21929C7.50225 2.3165 7.39504 2.45783 7.33996 2.62169L6.89662 4.07044C6.83488 4.25369 6.70819 4.40801 6.54046 4.50427C6.37274 4.60053 6.17559 4.63207 5.98621 4.59294L4.45829 4.2921C4.30356 4.27024 4.14582 4.29465 4.00494 4.36228C3.86406 4.4299 3.74635 4.5377 3.66663 4.6721L2.08329 7.41127C1.99713 7.55428 1.95838 7.72088 1.9726 7.88724C1.98682 8.0536 2.05327 8.2112 2.16246 8.33752L3.16788 9.47752C3.29479 9.62199 3.36479 9.80772 3.36479 10C3.36479 10.1923 3.29479 10.378 3.16788 10.5225L2.16246 11.6625C2.05327 11.7888 1.98682 11.9464 1.9726 12.1128C1.95838 12.2792 1.99713 12.4458 2.08329 12.5888L3.66663 15.3279C3.74983 15.4724 3.87651 15.5869 4.02862 15.6551C4.18072 15.7234 4.35049 15.7419 4.51371 15.7079L6.00204 15.4071C6.19142 15.368 6.38858 15.3995 6.5563 15.4958C6.72402 15.592 6.85071 15.7463 6.91246 15.9296L7.39537 17.3784C7.45046 17.5422 7.55766 17.6835 7.70061 17.7807C7.84357 17.878 8.01441 17.9257 8.18704 17.9167H11.3537C11.5197 17.9171 11.6816 17.8654 11.8165 17.7688C11.9515 17.6722 12.0527 17.5356 12.1058 17.3784L12.5887 15.9296C12.6505 15.7463 12.7771 15.592 12.9449 15.4958C13.1126 15.3995 13.3097 15.368 13.4991 15.4071L14.9875 15.7079C15.1507 15.7419 15.3204 15.7234 15.4726 15.6551C15.6247 15.5869 15.7513 15.4724 15.8345 15.3279L17.4179 12.5888C17.5019 12.4441 17.538 12.2766 17.5209 12.1102C17.5039 11.9438 17.4345 11.7871 17.3229 11.6625L16.2541 10.5225ZM15.0745 11.5834L15.7079 12.2959L14.6945 14.0534L13.7604 13.8634C13.1902 13.7468 12.5971 13.8437 12.0936 14.1355C11.5901 14.4274 11.2113 14.894 11.0291 15.4467L10.7283 16.3334H8.70162L8.41662 15.4309C8.23443 14.8781 7.85564 14.4116 7.35215 14.1197C6.84867 13.8278 6.25555 13.731 5.68537 13.8475L4.75121 14.0375L3.72204 12.2879L4.35538 11.5754C4.74484 11.14 4.96015 10.5763 4.96015 9.9921C4.96015 9.40791 4.74484 8.8442 4.35538 8.40877L3.72204 7.69627L4.73537 5.9546L5.66954 6.1446C6.23972 6.26115 6.83284 6.1643 7.33632 5.87243C7.8398 5.58055 8.21859 5.11398 8.40079 4.56127L8.70162 3.66669H10.7283L11.0291 4.56919C11.2113 5.12189 11.5901 5.58847 12.0936 5.88034C12.5971 6.17222 13.1902 6.26907 13.7604 6.15252L14.6945 5.96252L15.7079 7.72002L15.0745 8.43252C14.6894 8.86695 14.4768 9.42739 14.4768 10.0079C14.4768 10.5885 14.6894 11.1489 15.0745 11.5834ZM9.71496 6.83335C9.08865 6.83335 8.47641 7.01907 7.95565 7.36703C7.4349 7.71499 7.02902 8.20956 6.78934 8.78819C6.54966 9.36682 6.48695 10.0035 6.60914 10.6178C6.73132 11.2321 7.03292 11.7963 7.47579 12.2392C7.91865 12.6821 8.4829 12.9837 9.09717 13.1058C9.71145 13.228 10.3482 13.1653 10.9268 12.9256C11.5054 12.686 12 12.2801 12.3479 11.7593C12.6959 11.2386 12.8816 10.6263 12.8816 10C12.8816 9.16017 12.548 8.35471 11.9541 7.76085C11.3603 7.16698 10.5548 6.83335 9.71496 6.83335ZM9.71496 11.5834C9.4018 11.5834 9.09568 11.4905 8.8353 11.3165C8.57493 11.1425 8.37199 10.8953 8.25215 10.6059C8.13231 10.3166 8.10096 9.99826 8.16205 9.69113C8.22314 9.38399 8.37394 9.10187 8.59537 8.88043C8.81681 8.659 9.09893 8.5082 9.40607 8.44711C9.7132 8.38602 10.0316 8.41737 10.3209 8.53721C10.6102 8.65705 10.8575 8.85999 11.0315 9.12037C11.2054 9.38074 11.2983 9.68687 11.2983 10C11.2983 10.4199 11.1315 10.8227 10.8345 11.1196C10.5376 11.4165 10.1349 11.5834 9.71496 11.5834Z" fill="#4F4F4F"/>
</svg>
