<svg width="21" height="21" viewBox="0 0 21 21" fill="none" xmlns="http://www.w3.org/2000/svg">
<path d="M16.625 6.125H15.75V5.25C15.75 4.55381 15.4734 3.88613 14.9812 3.39384C14.4889 2.90156 13.8212 2.625 13.125 2.625H4.375C3.67881 2.625 3.01113 2.90156 2.51884 3.39384C2.02656 3.88613 1.75 4.55381 1.75 5.25V15.75C1.75 16.4462 2.02656 17.1139 2.51884 17.6062C3.01113 18.0984 3.67881 18.375 4.375 18.375H16.625C17.3212 18.375 17.9889 18.0984 18.4812 17.6062C18.9734 17.1139 19.25 16.4462 19.25 15.75V8.75C19.25 8.05381 18.9734 7.38613 18.4812 6.89384C17.9889 6.40156 17.3212 6.125 16.625 6.125ZM4.375 4.375H13.125C13.3571 4.375 13.5796 4.46719 13.7437 4.63128C13.9078 4.79538 14 5.01794 14 5.25V6.125H4.375C4.14294 6.125 3.92038 6.03281 3.75628 5.86872C3.59219 5.70462 3.5 5.48206 3.5 5.25C3.5 5.01794 3.59219 4.79538 3.75628 4.63128C3.92038 4.46719 4.14294 4.375 4.375 4.375ZM17.5 13.125H16.625C16.3929 13.125 16.1704 13.0328 16.0063 12.8687C15.8422 12.7046 15.75 12.4821 15.75 12.25C15.75 12.0179 15.8422 11.7954 16.0063 11.6313C16.1704 11.4672 16.3929 11.375 16.625 11.375H17.5V13.125ZM17.5 9.625H16.625C15.9288 9.625 15.2611 9.90156 14.7688 10.3938C14.2766 10.8861 14 11.5538 14 12.25C14 12.9462 14.2766 13.6139 14.7688 14.1062C15.2611 14.5984 15.9288 14.875 16.625 14.875H17.5V15.75C17.5 15.9821 17.4078 16.2046 17.2437 16.3687C17.0796 16.5328 16.8571 16.625 16.625 16.625H4.375C4.14294 16.625 3.92038 16.5328 3.75628 16.3687C3.59219 16.2046 3.5 15.9821 3.5 15.75V7.72625C3.78111 7.82514 4.077 7.87544 4.375 7.875H16.625C16.8571 7.875 17.0796 7.96719 17.2437 8.13128C17.4078 8.29538 17.5 8.51794 17.5 8.75V9.625Z" fill="#707070"/>
</svg>
