<svg width="151" height="56" viewBox="0 0 151 56" fill="none" xmlns="http://www.w3.org/2000/svg">
<circle cx="22.5556" cy="33.4445" r="22.5556" fill="#FF8266"/>
<rect x="12.4443" width="20.2222" height="7.77778" rx="3.88889" fill="#FF8266"/>
<path fill-rule="evenodd" clip-rule="evenodd" d="M31.1112 30.3334L31.1111 30.3813V42.7778C31.1111 44.0665 30.0664 45.1112 28.7778 45.1112C27.7566 45.1112 26.8886 44.4551 26.5723 43.5415C26.4318 43.1356 26.0962 42.7778 25.6667 42.7778C25.2371 42.7778 24.9016 43.1356 24.7611 43.5415C24.4448 44.4551 23.5768 45.1112 22.5556 45.1112C21.5344 45.1112 20.6664 44.4552 20.3501 43.5416C20.2096 43.1356 19.874 42.7778 19.4445 42.7778C19.0149 42.7778 18.6794 43.1356 18.5388 43.5416C18.2225 44.4552 17.3545 45.1112 16.3333 45.1112C15.0447 45.1112 14 44.0665 14 42.7778V30.3335C14 30.3334 14 30.3334 14.0001 30.3334H14.0001C14.0001 30.3334 14.0001 30.3334 14.0001 30.3334C14.0001 25.6083 17.8306 21.7778 22.5557 21.7778C27.2808 21.7778 31.1112 25.6083 31.1112 30.3334Z" fill="white"/>
<path d="M73.9193 37.36C75.5913 37.36 77.0273 37 78.2273 36.28C79.4273 35.552 80.3473 34.556 80.9873 33.292C81.6353 32.028 81.9593 30.58 81.9593 28.948C81.9593 28.9 81.9553 28.752 81.9473 28.504C81.9393 28.256 81.9273 28.068 81.9113 27.94H75.7913V30.208H78.8393C78.6153 31.696 78.0953 32.812 77.2793 33.556C76.4633 34.292 75.4033 34.652 74.0993 34.636C72.3633 34.612 71.0593 34.032 70.1873 32.896C69.3153 31.76 68.8833 30.248 68.8913 28.36C68.8993 27.096 69.0953 25.992 69.4793 25.048C69.8633 24.104 70.4393 23.372 71.2073 22.852C71.9753 22.332 72.9393 22.08 74.0993 22.096C75.2433 22.104 76.1873 22.412 76.9313 23.02C77.6833 23.628 78.2233 24.444 78.5513 25.468L81.5033 25C81.0633 23.224 80.2193 21.84 78.9713 20.848C77.7313 19.856 76.0473 19.36 73.9193 19.36C72.3833 19.36 71.0033 19.716 69.7793 20.428C68.5633 21.14 67.5993 22.168 66.8873 23.512C66.1833 24.856 65.8313 26.472 65.8313 28.36C65.8313 30.28 66.1913 31.912 66.9113 33.256C67.6393 34.592 68.6153 35.612 69.8393 36.316C71.0633 37.012 72.4233 37.36 73.9193 37.36ZM90.0935 37.36C91.3895 37.36 92.5215 37.072 93.4895 36.496C94.4575 35.912 95.2095 35.108 95.7455 34.084C96.2895 33.052 96.5615 31.864 96.5615 30.52C96.5615 29.184 96.2935 28.004 95.7575 26.98C95.2215 25.948 94.4695 25.14 93.5015 24.556C92.5335 23.972 91.3975 23.68 90.0935 23.68C88.8215 23.68 87.7015 23.968 86.7335 24.544C85.7655 25.12 85.0095 25.92 84.4655 26.944C83.9215 27.968 83.6495 29.16 83.6495 30.52C83.6495 31.856 83.9135 33.04 84.4415 34.072C84.9775 35.096 85.7295 35.9 86.6975 36.484C87.6655 37.068 88.7975 37.36 90.0935 37.36ZM90.0935 34.648C88.9815 34.648 88.1375 34.276 87.5615 33.532C86.9935 32.78 86.7095 31.776 86.7095 30.52C86.7095 29.296 86.9815 28.304 87.5255 27.544C88.0775 26.776 88.9335 26.392 90.0935 26.392C91.2295 26.392 92.0815 26.768 92.6495 27.52C93.2175 28.264 93.5015 29.264 93.5015 30.52C93.5015 31.736 93.2175 32.728 92.6495 33.496C92.0895 34.264 91.2375 34.648 90.0935 34.648ZM103.905 37.36C105.577 37.36 106.885 36.988 107.829 36.244C108.781 35.5 109.257 34.476 109.257 33.172C109.257 32.164 108.937 31.372 108.297 30.796C107.665 30.22 106.573 29.732 105.021 29.332C104.013 29.076 103.253 28.86 102.741 28.684C102.237 28.508 101.901 28.332 101.733 28.156C101.565 27.98 101.481 27.768 101.481 27.52C101.481 27.088 101.689 26.752 102.105 26.512C102.521 26.264 103.069 26.156 103.749 26.188C104.453 26.228 105.017 26.408 105.441 26.728C105.873 27.048 106.129 27.484 106.209 28.036L109.161 27.508C109.001 26.34 108.429 25.412 107.445 24.724C106.461 24.028 105.213 23.68 103.701 23.68C102.157 23.68 100.921 24.04 99.9927 24.76C99.0647 25.48 98.6007 26.448 98.6007 27.664C98.6007 28.632 98.9247 29.396 99.5727 29.956C100.229 30.516 101.369 31.008 102.993 31.432C103.969 31.688 104.689 31.904 105.153 32.08C105.625 32.248 105.933 32.42 106.077 32.596C106.221 32.772 106.293 33.008 106.293 33.304C106.293 33.784 106.101 34.164 105.717 34.444C105.333 34.716 104.797 34.852 104.109 34.852C103.317 34.852 102.657 34.668 102.129 34.3C101.609 33.932 101.277 33.428 101.133 32.788L98.1807 33.244C98.3967 34.548 99.0047 35.56 100.005 36.28C101.005 37 102.305 37.36 103.905 37.36ZM116.745 37.372C117.681 37.372 118.501 37.212 119.205 36.892C119.917 36.564 120.509 36.12 120.981 35.56V37H123.537V24.04H120.633V30.7C120.633 31.748 120.481 32.56 120.177 33.136C119.881 33.704 119.501 34.1 119.037 34.324C118.573 34.54 118.093 34.648 117.597 34.648C116.909 34.648 116.361 34.5 115.953 34.204C115.545 33.9 115.241 33.52 115.041 33.064C114.849 32.6 114.721 32.12 114.657 31.624C114.601 31.128 114.573 30.68 114.573 30.28V24.04H111.645V31.276C111.645 31.58 111.669 31.984 111.717 32.488C111.773 32.992 111.889 33.524 112.065 34.084C112.241 34.644 112.513 35.176 112.881 35.68C113.249 36.176 113.745 36.584 114.369 36.904C115.001 37.216 115.793 37.372 116.745 37.372ZM134.505 37V34.576C133.697 34.696 132.977 34.728 132.345 34.672C131.713 34.616 131.253 34.348 130.965 33.868C130.813 33.62 130.729 33.3 130.713 32.908C130.705 32.508 130.701 32.052 130.701 31.54V26.308H134.505V24.04H130.701V20.44H127.821V24.04H125.469V26.308H127.821V31.708C127.821 32.452 127.829 33.116 127.845 33.7C127.861 34.276 128.017 34.844 128.313 35.404C128.649 36.02 129.141 36.472 129.789 36.76C130.437 37.04 131.169 37.188 131.985 37.204C132.809 37.228 133.649 37.16 134.505 37ZM142.359 37.36C143.655 37.36 144.787 37.072 145.755 36.496C146.723 35.912 147.475 35.108 148.011 34.084C148.555 33.052 148.827 31.864 148.827 30.52C148.827 29.184 148.559 28.004 148.023 26.98C147.487 25.948 146.735 25.14 145.767 24.556C144.799 23.972 143.663 23.68 142.359 23.68C141.087 23.68 139.967 23.968 138.999 24.544C138.031 25.12 137.275 25.92 136.731 26.944C136.187 27.968 135.915 29.16 135.915 30.52C135.915 31.856 136.179 33.04 136.707 34.072C137.243 35.096 137.995 35.9 138.963 36.484C139.931 37.068 141.063 37.36 142.359 37.36ZM142.359 34.648C141.247 34.648 140.403 34.276 139.827 33.532C139.259 32.78 138.975 31.776 138.975 30.52C138.975 29.296 139.247 28.304 139.791 27.544C140.343 26.776 141.199 26.392 142.359 26.392C143.495 26.392 144.347 26.768 144.915 27.52C145.483 28.264 145.767 29.264 145.767 30.52C145.767 31.736 145.483 32.728 144.915 33.496C144.355 34.264 143.503 34.648 142.359 34.648Z" fill="#FF8266"/>
</svg>
