<svg width="20" height="20" viewBox="0 0 20 20" fill="none" xmlns="http://www.w3.org/2000/svg">
<path d="M13.3334 1.6665H6.66675C6.00371 1.6665 5.36783 1.9299 4.89899 2.39874C4.43015 2.86758 4.16675 3.50346 4.16675 4.1665V17.4998C4.16617 17.6467 4.2044 17.7911 4.27757 17.9184C4.35074 18.0457 4.45625 18.1514 4.58342 18.2248C4.7101 18.298 4.85381 18.3365 5.00009 18.3365C5.14637 18.3365 5.29007 18.298 5.41675 18.2248L10.0001 15.5748L14.5834 18.2248C14.7104 18.2968 14.8541 18.3342 15.0001 18.3332C15.1461 18.3342 15.2898 18.2968 15.4168 18.2248C15.5439 18.1514 15.6494 18.0457 15.7226 17.9184C15.7958 17.7911 15.834 17.6467 15.8334 17.4998V4.1665C15.8334 3.50346 15.57 2.86758 15.1012 2.39874C14.6323 1.9299 13.9965 1.6665 13.3334 1.6665ZM14.1668 16.0582L10.4168 13.8915C10.2901 13.8184 10.1464 13.7799 10.0001 13.7799C9.85381 13.7799 9.7101 13.8184 9.58342 13.8915L5.83342 16.0582V4.1665C5.83342 3.94549 5.92122 3.73353 6.0775 3.57725C6.23378 3.42097 6.44574 3.33317 6.66675 3.33317H13.3334C13.5544 3.33317 13.7664 3.42097 13.9227 3.57725C14.079 3.73353 14.1668 3.94549 14.1668 4.1665V16.0582Z" fill="white"/>
</svg>
