<svg width="20" height="20" viewBox="0 0 20 20" fill="none" xmlns="http://www.w3.org/2000/svg">
<path d="M16.2541 10.5223C16.1272 10.3778 16.0572 10.1921 16.0572 9.99977C16.0572 9.80747 16.1272 9.62174 16.2541 9.47727L17.2675 8.33727C17.3791 8.21272 17.4485 8.056 17.4655 7.88959C17.4826 7.72319 17.4465 7.55565 17.3625 7.41102L15.7791 4.67186C15.6959 4.5274 15.5692 4.41289 15.4171 4.34465C15.265 4.27642 15.0953 4.25794 14.932 4.29186L13.4437 4.59269C13.2543 4.63182 13.0572 4.60028 12.8895 4.50402C12.7217 4.40777 12.595 4.25345 12.5333 4.07019L12.0504 2.62144C11.9973 2.4642 11.8961 2.32763 11.7611 2.23102C11.6262 2.13442 11.4643 2.08268 11.2983 2.08311H8.13163C7.95899 2.0741 7.78815 2.12184 7.6452 2.21905C7.50225 2.31626 7.39504 2.45758 7.33996 2.62144L6.89662 4.07019C6.83488 4.25345 6.70819 4.40777 6.54046 4.50402C6.37274 4.60028 6.17559 4.63182 5.98621 4.59269L4.45829 4.29186C4.30356 4.26999 4.14582 4.29441 4.00494 4.36203C3.86406 4.42965 3.74635 4.53746 3.66663 4.67186L2.08329 7.41102C1.99713 7.55404 1.95838 7.72063 1.9726 7.88699C1.98682 8.05335 2.05327 8.21096 2.16246 8.33727L3.16788 9.47727C3.29479 9.62174 3.36479 9.80747 3.36479 9.99977C3.36479 10.1921 3.29479 10.3778 3.16788 10.5223L2.16246 11.6623C2.05327 11.7886 1.98682 11.9462 1.9726 12.1126C1.95838 12.2789 1.99713 12.4455 2.08329 12.5885L3.66663 15.3277C3.74983 15.4722 3.87651 15.5867 4.02862 15.6549C4.18072 15.7231 4.35049 15.7416 4.51371 15.7077L6.00204 15.4069C6.19142 15.3677 6.38858 15.3993 6.5563 15.4955C6.72402 15.5918 6.85071 15.7461 6.91246 15.9294L7.39537 17.3781C7.45046 17.542 7.55766 17.6833 7.70061 17.7805C7.84357 17.8777 8.01441 17.9255 8.18704 17.9164H11.3537C11.5197 17.9169 11.6816 17.8651 11.8165 17.7685C11.9515 17.6719 12.0527 17.5353 12.1058 17.3781L12.5887 15.9294C12.6505 15.7461 12.7771 15.5918 12.9449 15.4955C13.1126 15.3993 13.3097 15.3677 13.4991 15.4069L14.9875 15.7077C15.1507 15.7416 15.3204 15.7231 15.4726 15.6549C15.6247 15.5867 15.7513 15.4722 15.8345 15.3277L17.4179 12.5885C17.5019 12.4439 17.538 12.2764 17.5209 12.11C17.5039 11.9436 17.4345 11.7868 17.3229 11.6623L16.2541 10.5223ZM15.0745 11.5831L15.7079 12.2956L14.6945 14.0531L13.7604 13.8631C13.1902 13.7466 12.5971 13.8434 12.0936 14.1353C11.5901 14.4272 11.2113 14.8937 11.0291 15.4464L10.7283 16.3331H8.70162L8.41662 15.4306C8.23443 14.8779 7.85564 14.4113 7.35215 14.1195C6.84867 13.8276 6.25555 13.7307 5.68537 13.8473L4.75121 14.0373L3.72204 12.2877L4.35538 11.5752C4.74484 11.1398 4.96015 10.5761 4.96015 9.99186C4.96015 9.40766 4.74484 8.84396 4.35538 8.40852L3.72204 7.69602L4.73537 5.95436L5.66954 6.14436C6.23972 6.26091 6.83284 6.16406 7.33632 5.87218C7.8398 5.58031 8.21859 5.11373 8.40079 4.56102L8.70162 3.66644H10.7283L11.0291 4.56894C11.2113 5.12165 11.5901 5.58823 12.0936 5.8801C12.5971 6.17197 13.1902 6.26883 13.7604 6.15227L14.6945 5.96227L15.7079 7.71977L15.0745 8.43228C14.6894 8.86671 14.4768 9.42715 14.4768 10.0077C14.4768 10.5882 14.6894 11.1487 15.0745 11.5831ZM9.71496 6.83311C9.08865 6.83311 8.47641 7.01883 7.95565 7.36679C7.4349 7.71475 7.02902 8.20931 6.78934 8.78794C6.54966 9.36658 6.48695 10.0033 6.60914 10.6176C6.73132 11.2318 7.03292 11.7961 7.47579 12.2389C7.91865 12.6818 8.4829 12.9834 9.09717 13.1056C9.71145 13.2278 10.3482 13.1651 10.9268 12.9254C11.5054 12.6857 12 12.2798 12.3479 11.7591C12.6959 11.2383 12.8816 10.6261 12.8816 9.99977C12.8816 9.15992 12.548 8.35447 11.9541 7.7606C11.3603 7.16674 10.5548 6.83311 9.71496 6.83311ZM9.71496 11.5831C9.4018 11.5831 9.09568 11.4902 8.8353 11.3163C8.57493 11.1423 8.37199 10.895 8.25215 10.6057C8.13231 10.3164 8.10096 9.99802 8.16205 9.69088C8.22314 9.38375 8.37394 9.10162 8.59537 8.88019C8.81681 8.65876 9.09893 8.50796 9.40607 8.44686C9.7132 8.38577 10.0316 8.41713 10.3209 8.53697C10.6102 8.6568 10.8575 8.85974 11.0315 9.12012C11.2054 9.3805 11.2983 9.68662 11.2983 9.99977C11.2983 10.4197 11.1315 10.8224 10.8345 11.1194C10.5376 11.4163 10.1349 11.5831 9.71496 11.5831Z" fill="white"/>
</svg>
