<?xml version="1.0" encoding="UTF-8"?>
<svg width="24px" height="18px" viewBox="0 0 24 18" version="1.1" xmlns="http://www.w3.org/2000/svg" xmlns:xlink="http://www.w3.org/1999/xlink">
    <title>Group</title>
    <g id="Page-1" stroke="none" stroke-width="1" fill="none" fill-rule="evenodd">
        <g id="Group" transform="translate(0.999997, 1.000000)">
            <g id="visibility" fill="#FFFFFF" fill-opacity="0.4">
                <path d="M2.4902425,3.84399 C4.5409025,1.45399 7.0371425,0 10,0 C12.9629025,0 15.4591025,1.45399 17.5098025,3.84399 C18.2117025,4.66099 18.8255025,5.534 19.3241025,6.406 C19.6265025,6.934 19.8108025,7.342 19.9189025,7.594 C20.0270025,7.845 20.0270025,8.155 19.9189025,8.406 C19.8108025,8.658 19.6265025,9.066 19.3241025,9.594 C18.8255025,10.466 18.2117025,11.339 17.5098025,12.156 C15.4591025,14.546 12.9629025,16 10,16 C7.0371425,16 4.5409025,14.546 2.4902425,12.156 C1.7883325,11.339 1.1745325,10.466 0.6758925,9.594 C0.3734925,9.066 0.1892525,8.658 0.0811125,8.406 C-0.0270375,8.155 -0.0270375,7.845 0.0811125,7.594 C0.1892525,7.342 0.3734925,6.934 0.6758925,6.406 C1.1745325,5.534 1.7883325,4.66099 2.4902425,3.84399 Z M13.0000025,8 C13.0000025,6.3432 11.6568025,5 10.0000025,5 C8.3432025,5 7.0000025,6.3432 7.0000025,8 C7.0000025,9.6567 8.3432025,11 10.0000025,11 C11.6568025,11 13.0000025,9.6567 13.0000025,8 Z" id="Shape"></path>
            </g>
            <line x1="0.5000025" y1="0.5" x2="21.5000025" y2="15.5" id="Line" stroke-opacity="0.4" stroke="#FFFFFF" stroke-width="3" stroke-linecap="round"></line>
        </g>
    </g>
</svg>