<svg width="19" height="17" viewBox="0 0 19 17" fill="none" xmlns="http://www.w3.org/2000/svg">
<path d="M15.625 4.125H14.75V3.25C14.75 2.55381 14.4734 1.88613 13.9812 1.39384C13.4889 0.901562 12.8212 0.625 12.125 0.625H3.375C2.67881 0.625 2.01113 0.901562 1.51884 1.39384C1.02656 1.88613 0.75 2.55381 0.75 3.25V13.75C0.75 14.4462 1.02656 15.1139 1.51884 15.6062C2.01113 16.0984 2.67881 16.375 3.375 16.375H15.625C16.3212 16.375 16.9889 16.0984 17.4812 15.6062C17.9734 15.1139 18.25 14.4462 18.25 13.75V6.75C18.25 6.05381 17.9734 5.38613 17.4812 4.89384C16.9889 4.40156 16.3212 4.125 15.625 4.125ZM3.375 2.375H12.125C12.3571 2.375 12.5796 2.46719 12.7437 2.63128C12.9078 2.79538 13 3.01794 13 3.25V4.125H3.375C3.14294 4.125 2.92038 4.03281 2.75628 3.86872C2.59219 3.70462 2.5 3.48206 2.5 3.25C2.5 3.01794 2.59219 2.79538 2.75628 2.63128C2.92038 2.46719 3.14294 2.375 3.375 2.375ZM16.5 11.125H15.625C15.3929 11.125 15.1704 11.0328 15.0063 10.8687C14.8422 10.7046 14.75 10.4821 14.75 10.25C14.75 10.0179 14.8422 9.79538 15.0063 9.63128C15.1704 9.46719 15.3929 9.375 15.625 9.375H16.5V11.125ZM16.5 7.625H15.625C14.9288 7.625 14.2611 7.90156 13.7688 8.39384C13.2766 8.88613 13 9.55381 13 10.25C13 10.9462 13.2766 11.6139 13.7688 12.1062C14.2611 12.5984 14.9288 12.875 15.625 12.875H16.5V13.75C16.5 13.9821 16.4078 14.2046 16.2437 14.3687C16.0796 14.5328 15.8571 14.625 15.625 14.625H3.375C3.14294 14.625 2.92038 14.5328 2.75628 14.3687C2.59219 14.2046 2.5 13.9821 2.5 13.75V5.72625C2.78111 5.82514 3.077 5.87544 3.375 5.875H15.625C15.8571 5.875 16.0796 5.96719 16.2437 6.13128C16.4078 6.29538 16.5 6.51794 16.5 6.75V7.625Z" fill="white"/>
</svg>
