<svg width="102" height="165" viewBox="0 0 102 165" fill="none" xmlns="http://www.w3.org/2000/svg">
<ellipse cx="73.9271" cy="113.344" rx="12.7659" ry="14.1175" fill="#FFCB66"/>
<ellipse cx="13.179" cy="63.6868" rx="12.7659" ry="14.1175" fill="#FFCB66"/>
<path d="M91.0473 134.275L101.661 134.275C101.661 159.729 83.466 164.976 74.3685 164.418C52.5344 164.418 47.0758 144.323 47.0758 134.275L58.4478 134.275C58.4478 147.672 69.0616 151.579 74.3685 151.859C87.7116 151.859 91.0473 140.136 91.0473 134.275Z" fill="#FFCB66"/>
<path d="M91.0473 134.275L101.661 134.275C101.661 159.729 83.466 164.976 74.3685 164.418C52.5344 164.418 47.0758 144.323 47.0758 134.275L58.4478 134.275C58.4478 147.672 69.0616 151.579 74.3685 151.859C87.7116 151.859 91.0473 140.136 91.0473 134.275Z" fill="#70CF98"/>
<path d="M39.999 113.829L39.999 126.405C27.8845 126.405 24.3512 138.142 24.0988 144.011L12.7414 144.011C12.7414 119.866 30.9132 113.829 39.999 113.829Z" fill="#C4C4C4"/>
<path d="M39.999 113.829L39.999 126.405C27.8845 126.405 24.3512 138.142 24.0988 144.011L12.7414 144.011C12.7414 119.866 30.9132 113.829 39.999 113.829Z" fill="#70CF98"/>
<path d="M32.1045 47.6765V35.939C55.122 35.939 59.8668 56.0604 59.3621 66.1211C59.3621 90.2668 41.1904 96.3032 32.1045 96.3032V83.7273C44.219 83.7273 47.7524 71.9898 48.0047 66.1211C48.0047 51.3654 37.4046 47.6765 32.1045 47.6765Z" fill="#C4C4C4"/>
<path d="M32.1045 47.6765V35.939C55.122 35.939 59.8668 56.0604 59.3621 66.1211C59.3621 90.2668 41.1904 96.3032 32.1045 96.3032V83.7273C44.219 83.7273 47.7524 71.9898 48.0047 66.1211C48.0047 51.3654 37.4046 47.6765 32.1045 47.6765Z" fill="#FF8266"/>
<rect x="68.207" y="44.7026" width="12.3257" height="37.9711" fill="#70CF98"/>
<rect x="69.9648" y="0.890137" width="13.6306" height="34.3359" transform="rotate(90 69.9648 0.890137)" fill="#FFCB66"/>
</svg>
