<svg width="13" height="8" viewBox="0 0 13 8" fill="none" xmlns="http://www.w3.org/2000/svg">
<path d="M0.295798 0.29592C0.20207 0.388884 0.127676 0.499485 0.0769069 0.621344C0.0261382 0.743203 -2.68292e-07 0.873909 -2.62522e-07 1.00592C-2.56751e-07 1.13793 0.0261382 1.26864 0.0769069 1.3905C0.127676 1.51236 0.20207 1.62296 0.295798 1.71592L5.2958 6.71592C5.38876 6.80965 5.49936 6.88404 5.62122 6.93481C5.74308 6.98558 5.87379 7.01172 6.0058 7.01172C6.13781 7.01172 6.26852 6.98558 6.39038 6.93481C6.51223 6.88404 6.62284 6.80965 6.7158 6.71592L11.7158 1.71592C11.8095 1.62296 11.8839 1.51236 11.9347 1.3905C11.9855 1.26864 12.0116 1.13793 12.0116 1.00592C12.0116 0.873908 11.9855 0.743202 11.9347 0.621343C11.8839 0.499484 11.8095 0.388883 11.7158 0.29592C11.6228 0.202191 11.5122 0.127798 11.3904 0.0770287C11.2685 0.0262599 11.1378 0.000121583 11.0058 0.000121589C10.8738 0.000121595 10.7431 0.0262599 10.6212 0.0770288C10.4994 0.127798 10.3888 0.202191 10.2958 0.29592L6.0058 4.59592L1.7158 0.29592C1.62284 0.202192 1.51223 0.127798 1.39037 0.0770292C1.26852 0.0262603 1.13781 0.000122021 1.0058 0.000122026C0.873786 0.000122032 0.74308 0.0262603 0.621221 0.0770292C0.499362 0.127798 0.388761 0.202192 0.295798 0.29592Z" fill="white"/>
</svg>
