<svg width="19" height="19" viewBox="0 0 19 19" fill="none" xmlns="http://www.w3.org/2000/svg">
<path d="M16.7912 12.5794C16.2876 13.7704 15.4999 14.82 14.4969 15.6363C13.4939 16.4525 12.3063 17.0107 11.0378 17.2619C9.76924 17.5132 8.4585 17.4498 7.22011 17.0775C5.98172 16.7051 4.85341 16.0351 3.9338 15.1259C3.0142 14.2168 2.3313 13.0962 1.94483 11.8621C1.55835 10.6281 1.48006 9.31812 1.7168 8.04682C1.95354 6.77552 2.49809 5.58156 3.30286 4.56934C4.10763 3.55712 5.14811 2.75744 6.33333 2.24023" stroke="white" stroke-width="2" stroke-linecap="round" stroke-linejoin="round"/>
<path d="M17.4167 9.50016C17.4167 8.46053 17.2119 7.43108 16.814 6.47059C16.4162 5.51009 15.8331 4.63736 15.0979 3.90223C14.3628 3.1671 13.4901 2.58397 12.5296 2.18612C11.5691 1.78827 10.5396 1.5835 9.5 1.5835V9.50016H17.4167Z" stroke="white" stroke-width="2" stroke-linecap="round" stroke-linejoin="round"/>
</svg>
