<svg width="46" height="45" viewBox="0 0 46 45" fill="none" xmlns="http://www.w3.org/2000/svg">
<path d="M36.3389 12.423H33.9389L33.3389 10.5777C32.9499 9.495 32.2284 8.55812 31.2743 7.89689C30.3202 7.23566 29.1808 6.88282 28.0139 6.88725H18.4139C17.2355 6.88942 16.0876 7.25571 15.1322 7.93443C14.1767 8.61315 13.462 9.57002 13.0889 10.67L12.4889 12.5152H10.0889C8.59703 12.5152 7.16629 13.0985 6.11139 14.1366C5.0565 15.1747 4.46387 16.5828 4.46387 18.0509V32.8129C4.46387 34.281 5.0565 35.6891 6.11139 36.7272C7.16629 37.7653 8.59703 38.3486 10.0889 38.3486H36.3389C37.8307 38.3486 39.2615 37.7653 40.3164 36.7272C41.3713 35.6891 41.9639 34.281 41.9639 32.8129V18.0509C41.9763 17.3163 41.84 16.5865 41.5629 15.9042C41.2858 15.2219 40.8735 14.6007 40.3499 14.0768C39.8263 13.553 39.202 13.1369 38.5134 12.853C37.8247 12.569 37.0855 12.4229 36.3389 12.423ZM38.2139 32.7206C38.2139 33.21 38.0163 33.6793 37.6647 34.0254C37.3131 34.3714 36.8362 34.5658 36.3389 34.5658H10.0889C9.59159 34.5658 9.11468 34.3714 8.76304 34.0254C8.41141 33.6793 8.21387 33.21 8.21387 32.7206V17.9587C8.21387 17.4693 8.41141 17 8.76304 16.6539C9.11468 16.3079 9.59159 16.1134 10.0889 16.1134H13.8389C14.2477 16.1344 14.6524 16.0232 14.9909 15.7966C15.3295 15.57 15.5834 15.2406 15.7139 14.8587L16.7264 11.8325C16.8522 11.466 17.0918 11.1477 17.4114 10.9225C17.7311 10.6973 18.1145 10.5767 18.5076 10.5777H28.1076C28.5007 10.5767 28.8842 10.6973 29.2038 10.9225C29.5234 11.1477 29.7631 11.466 29.8889 11.8325L30.9014 14.8587C31.0217 15.2107 31.2471 15.5187 31.5482 15.7426C31.8493 15.9664 32.212 16.0957 32.5889 16.1134H36.3389C36.8362 16.1134 37.3131 16.3079 37.6647 16.6539C38.0163 17 38.2139 17.4693 38.2139 17.9587V32.7206ZM23.2139 16.1134C21.7305 16.1134 20.2805 16.5463 19.0471 17.3574C17.8137 18.1684 16.8524 19.3211 16.2848 20.6698C15.7171 22.0185 15.5686 23.5026 15.858 24.9344C16.1474 26.3661 16.8617 27.6813 17.9106 28.7135C18.9595 29.7458 20.2958 30.4487 21.7507 30.7335C23.2056 31.0183 24.7136 30.8722 26.084 30.3135C27.4544 29.7549 28.6258 28.8088 29.4499 27.595C30.274 26.3812 30.7139 24.9542 30.7139 23.4944C30.7139 21.5368 29.9237 19.6595 28.5172 18.2753C27.1107 16.8911 25.203 16.1134 23.2139 16.1134ZM23.2139 27.1849C22.4722 27.1849 21.7472 26.9684 21.1305 26.5629C20.5138 26.1574 20.0332 25.581 19.7493 24.9067C19.4655 24.2323 19.3912 23.4903 19.5359 22.7744C19.6806 22.0585 20.0378 21.401 20.5622 20.8848C21.0867 20.3687 21.7549 20.0172 22.4823 19.8748C23.2097 19.7324 23.9637 19.8055 24.6489 20.0848C25.3342 20.3642 25.9198 20.8372 26.3319 21.4441C26.7439 22.051 26.9639 22.7645 26.9639 23.4944C26.9639 24.4732 26.5688 25.4119 25.8655 26.104C25.1623 26.7961 24.2084 27.1849 23.2139 27.1849Z" fill="white"/>
</svg>
