<svg width="40" height="41" viewBox="0 0 40 41" fill="none" xmlns="http://www.w3.org/2000/svg">
<rect width="40" height="40.4194" rx="12" fill="#2A2F3C"/>
<ellipse cx="19.583" cy="22.7503" rx="11.25" ry="11.368" fill="#FF8266"/>
<rect x="14.54" y="5.89453" width="10.0862" height="3.91999" rx="1.95999" fill="#FF8266"/>
<path fill-rule="evenodd" clip-rule="evenodd" d="M23.85 21.1826L23.8499 21.2134V27.4389C23.85 27.4441 23.85 27.4493 23.85 27.4545C23.85 28.1039 23.329 28.6304 22.6862 28.6304C22.1756 28.6304 21.7417 28.2981 21.585 27.8358C21.5162 27.6328 21.3487 27.4546 21.1345 27.4546C20.9202 27.4546 20.7528 27.6328 20.684 27.8358C20.5272 28.2981 20.0934 28.6304 19.5827 28.6304C19.072 28.6304 18.6382 28.2981 18.4815 27.8358C18.4127 27.6328 18.2452 27.4546 18.031 27.4546C17.8167 27.4546 17.6493 27.6328 17.5805 27.8358C17.4237 28.2981 16.9899 28.6304 16.4792 28.6304C15.8365 28.6304 15.3155 28.104 15.3154 27.4546V27.4545V21.1826C15.3154 21.1826 15.3155 21.1826 15.3155 21.1826C15.3155 21.1826 15.3155 21.1825 15.3155 21.1825C15.3156 18.8011 17.2261 16.8706 19.5828 16.8706C21.9395 16.8706 23.85 18.8011 23.85 21.1826Z" fill="#2A2F3C"/>
</svg>
