<svg width="32" height="32" viewBox="0 0 32 32" fill="none" xmlns="http://www.w3.org/2000/svg">
<path d="M23.8133 16.1866L27.52 12.4666C27.7733 12.1999 27.7733 11.7866 27.52 11.5199L23.8133 7.79989C23.4 7.37322 22.68 7.67989 22.68 8.26655L22.68 10.6666L14.6666 10.6666C13.9333 10.6666 13.3333 11.2666 13.3333 11.9999C13.3333 12.7332 13.9333 13.3332 14.6666 13.3332L22.68 13.3332L22.68 15.7199C22.68 16.3199 23.4 16.6132 23.8133 16.1866V16.1866ZM4.46663 20.4665L8.17329 24.1865C8.58662 24.6132 9.30662 24.3065 9.30662 23.7199L9.30662 21.3332L17.3333 21.3332C18.0666 21.3332 18.6666 20.7332 18.6666 19.9999C18.6666 19.2665 18.0666 18.6665 17.3333 18.6665L9.31996 18.6665L9.31996 16.2799C9.31996 15.6799 8.59996 15.3865 8.18662 15.8132L4.47996 19.5332C4.21329 19.7865 4.21329 20.2132 4.46663 20.4665V20.4665Z" fill="white" fill-opacity="0.8"/>
</svg>
