<svg width="25" height="20" viewBox="0 0 25 20" fill="none" xmlns="http://www.w3.org/2000/svg">
<path d="M6.09515 15.2333H13.7533C14.4418 15.2333 15 14.6752 15 13.9867C15 13.2982 14.4418 12.74 13.7533 12.74H6.09515C6.09281 12.74 6.09091 12.7381 6.09091 12.7358V10.1897C6.09091 9.7467 5.55748 9.52251 5.24103 9.83248L1.33218 13.6613C1.14495 13.8447 1.1311 14.1415 1.30045 14.3416L5.2093 18.9587C5.51022 19.3141 6.09091 19.1013 6.09091 18.6356V15.2376C6.09091 15.2352 6.09281 15.2333 6.09515 15.2333Z" stroke="white" stroke-width="1.5"/>
<path d="M18.8091 4.75L11 4.75C10.4477 4.75 10 5.19771 10 5.75L10 6.25C10 6.80228 10.4477 7.25 11 7.25L18.8091 7.25C18.8643 7.25 18.9091 7.29477 18.9091 7.35L18.9091 9.80811C18.9091 10.2514 19.4432 10.4754 19.7594 10.1648L23.6368 6.35672C23.8363 6.16076 23.8363 5.83924 23.6368 5.64328L19.7594 1.83517C19.4432 1.52456 18.9091 1.74861 18.9091 2.19189L18.9091 4.65C18.9091 4.70523 18.8643 4.75 18.8091 4.75Z" stroke="white" stroke-width="1.5"/>
</svg>
