<svg width="20" height="20" viewBox="0 0 20 20" fill="none" xmlns="http://www.w3.org/2000/svg">
<path d="M17.6832 10C18.098 9.54364 18.3295 8.95005 18.3332 8.33333C18.3332 7.67029 18.0698 7.03441 17.6009 6.56557C17.1321 6.09673 16.4962 5.83333 15.8332 5.83333H11.5165C11.6496 5.45681 11.6906 5.05388 11.636 4.65827C11.5814 4.26266 11.4329 3.88588 11.2028 3.55949C10.9726 3.23309 10.6677 2.96656 10.3134 2.78223C9.95914 2.5979 9.56586 2.50112 9.1665 2.5H4.1665C3.50346 2.5 2.86758 2.76339 2.39874 3.23223C1.9299 3.70107 1.6665 4.33696 1.6665 5C1.67018 5.61671 1.90168 6.2103 2.3165 6.66667C1.90654 7.12502 1.67989 7.71839 1.67989 8.33333C1.67989 8.94828 1.90654 9.54165 2.3165 10C1.90654 10.4584 1.67989 11.0517 1.67989 11.6667C1.67989 12.2816 1.90654 12.875 2.3165 13.3333C1.90168 13.7897 1.67018 14.3833 1.6665 15C1.6665 15.663 1.9299 16.2989 2.39874 16.7678C2.86758 17.2366 3.50346 17.5 4.1665 17.5H15.8332C16.3146 17.4974 16.7851 17.3559 17.1881 17.0924C17.591 16.8289 17.9093 16.4546 18.1047 16.0145C18.3001 15.5745 18.3643 15.0874 18.2895 14.6117C18.2147 14.1361 18.0042 13.6922 17.6832 13.3333C18.0931 12.875 18.3198 12.2816 18.3198 11.6667C18.3198 11.0517 18.0931 10.4584 17.6832 10ZM9.1665 15.8333H4.1665C3.94549 15.8333 3.73353 15.7455 3.57725 15.5893C3.42097 15.433 3.33317 15.221 3.33317 15C3.33317 14.779 3.42097 14.567 3.57725 14.4107C3.73353 14.2545 3.94549 14.1667 4.1665 14.1667H9.1665C9.38752 14.1667 9.59948 14.2545 9.75576 14.4107C9.91204 14.567 9.99984 14.779 9.99984 15C9.99984 15.221 9.91204 15.433 9.75576 15.5893C9.59948 15.7455 9.38752 15.8333 9.1665 15.8333ZM9.1665 12.5H4.1665C3.94549 12.5 3.73353 12.4122 3.57725 12.2559C3.42097 12.0996 3.33317 11.8877 3.33317 11.6667C3.33317 11.4457 3.42097 11.2337 3.57725 11.0774C3.73353 10.9211 3.94549 10.8333 4.1665 10.8333H9.1665C9.38752 10.8333 9.59948 10.9211 9.75576 11.0774C9.91204 11.2337 9.99984 11.4457 9.99984 11.6667C9.99984 11.8877 9.91204 12.0996 9.75576 12.2559C9.59948 12.4122 9.38752 12.5 9.1665 12.5ZM9.1665 9.16667H4.1665C3.94549 9.16667 3.73353 9.07887 3.57725 8.92259C3.42097 8.76631 3.33317 8.55435 3.33317 8.33333C3.33317 8.11232 3.42097 7.90036 3.57725 7.74408C3.73353 7.5878 3.94549 7.5 4.1665 7.5H9.1665C9.38752 7.5 9.59948 7.5878 9.75576 7.74408C9.91204 7.90036 9.99984 8.11232 9.99984 8.33333C9.99984 8.55435 9.91204 8.76631 9.75576 8.92259C9.59948 9.07887 9.38752 9.16667 9.1665 9.16667ZM9.1665 5.83333H4.1665C3.94549 5.83333 3.73353 5.74554 3.57725 5.58926C3.42097 5.43298 3.33317 5.22101 3.33317 5C3.33317 4.77899 3.42097 4.56702 3.57725 4.41074C3.73353 4.25446 3.94549 4.16667 4.1665 4.16667H9.1665C9.38752 4.16667 9.59948 4.25446 9.75576 4.41074C9.91204 4.56702 9.99984 4.77899 9.99984 5C9.99984 5.22101 9.91204 5.43298 9.75576 5.58926C9.59948 5.74554 9.38752 5.83333 9.1665 5.83333ZM16.4082 15.5917C16.3343 15.6696 16.245 15.7313 16.1461 15.7729C16.0471 15.8145 15.9405 15.8351 15.8332 15.8333H11.5165C11.7163 15.2957 11.7163 14.7043 11.5165 14.1667H15.8332C16.0542 14.1667 16.2661 14.2545 16.4224 14.4107C16.5787 14.567 16.6665 14.779 16.6665 15C16.665 15.1108 16.6413 15.2203 16.597 15.3219C16.5526 15.4235 16.4884 15.5152 16.4082 15.5917ZM16.4082 12.2583C16.3343 12.3362 16.245 12.398 16.1461 12.4396C16.0471 12.4812 15.9405 12.5017 15.8332 12.5H11.5165C11.7163 11.9624 11.7163 11.3709 11.5165 10.8333H15.8332C16.0542 10.8333 16.2661 10.9211 16.4224 11.0774C16.5787 11.2337 16.6665 11.4457 16.6665 11.6667C16.665 11.7775 16.6413 11.8869 16.597 11.9885C16.5526 12.0901 16.4884 12.1819 16.4082 12.2583ZM16.4082 8.925C16.3343 9.00291 16.245 9.06463 16.1461 9.10623C16.0471 9.14783 15.9405 9.16841 15.8332 9.16667H11.5165C11.7163 8.62908 11.7163 8.03759 11.5165 7.5H15.8332C16.0542 7.5 16.2661 7.5878 16.4224 7.74408C16.5787 7.90036 16.6665 8.11232 16.6665 8.33333C16.665 8.44418 16.6413 8.5536 16.597 8.6552C16.5526 8.7568 16.4884 8.84852 16.4082 8.925Z" fill="white"/>
</svg>
